PathFileType	4	(X/Y/Z)	RBDS010\RBDS010runT25.trc
DataRate	CameraRate	NumFrames	NumMarkers	Units	OrigDataRate	OrigDataStartFrame	OrigNumFrames
150.000000	150.000000	5	32	mm	150.000000	1125	4500
Frame#	Time	L.ASIS			L.Heel.Bottom			L.Heel.Lateral			L.Heel.Top			L.Iliac.Crest			L.MT5			L.PSIS			L.Shank.Bottom.Lateral			L.Shank.Bottom.Medial			L.Shank.Top.Lateral			L.Shank.Top.Medial			L.Thigh.Bottom.Lateral			L.Thigh.Bottom.Medial			L.Thigh.Top.Lateral			L.Thigh.Top.Medial			R.ASIS			R.ASY			R.Heel.Bottom			R.Heel.Lateral			R.Heel.Top			R.Iliac.Crest			R.MT1			R.MT5			R.PSIS			R.Shank.Bottom.Lateral			R.Shank.Bottom.Medial			R.Shank.Top.Lateral			R.Shank.Top.Medial			R.Thigh.Bottom.Lateral			R.Thigh.Bottom.Medial			R.Thigh.Top.Lateral			R.Thigh.Top.Medial			
		X1	Y1	Z1	X2	Y2	Z2	X3	Y3	Z3	X4	Y4	Z4	X5	Y5	Z5	X6	Y6	Z6	X7	Y7	Z7	X8	Y8	Z8	X9	Y9	Z9	X10	Y10	Z10	X11	Y11	Z11	X12	Y12	Z12	X13	Y13	Z13	X14	Y14	Z14	X15	Y15	Z15	X16	Y16	Z16	X17	Y17	Z17	X18	Y18	Z18	X19	Y19	Z19	X20	Y20	Z20	X21	Y21	Z21	X22	Y22	Z22	X23	Y23	Z23	X24	Y24	Z24	X25	Y25	Z25	X26	Y26	Z26	X27	Y27	Z27	X28	Y28	Z28	X29	Y29	Z29	X30	Y30	Z30	X31	Y31	Z31	X32	Y32	Z32	

1126	7.500000000000001	2331.163524023906	937.9853577130087	861.3364546223597	2212.121809058516	30.13448296236957	975.2794223839751	2239.195259717319	45.1181013087708	928.6006551738387	2224.132267356807	80.65532209600578	974.9501339783616	2279.346274295189	1021.140388442283	835.5365739754664	2401.519437540217	40.28759209140051	898.7900452807493	2166.684439600357	978.4606344276361	947.7416713728596	2293.02681548301	153.2667319327714	905.6877896920097	2259.580764233972	168.3197211646441	945.0488045811039	2301.016548286382	229.3248290815129	881.355448787062	2268.54784794645	245.4603505875977	921.3272118113158	2349.320298435285	548.8483898306183	834.2914527877412	2300.592605863892	527.2829019132106	883.3326774622051	2289.666539720692	640.3877540426287	818.5426904816649	2244.603457523241	621.2346127450386	866.0525016704623	2348.192629457802	922.5274554541866	1089.596592674583	1888.067649894177	227.2318715534537	1060.810041637139	1791.9207262364	388.7772911684788	1039.048496466949	1814.82426487723	369.2091361373598	1086.160985954589	1841.597107114168	388.8507813079778	1041.167012834115	2294.921750454127	1007.937044413572	1135.131661142385	1848.675989407002	183.8210514517402	1008.899300880721	1834.033211532641	208.3723236643598	1118.991766625662	2177.227069538712	976.8171556959326	1045.990595303692	1945.177444924755	357.1940708527951	1098.808347334029	1933.9573358772	396.7396896696164	1068.012149566114	2023.07890510528	389.434656112879	1108.77597969914	2007.253922420203	429.277053875333	1076.715061227253	2252.776882859577	539.0108164764549	1129.380578894687	2193.850281765397	538.6110857536645	1084.809890168758	2238.021151601148	646.5896425816051	1144.031198281544	2180.864623565018	647.0462793359254	1104.968120368657	
1127	7.506666666666667	2329.998294726129	933.1960748394131	861.4143283680812	2195.189792907553	30.11297979870962	975.4954679516461	2222.308658212213	45.49618354364436	928.9260791565639	2207.23631281379	80.64612944170443	975.586306093742	2278.66278945917	1015.212718662627	835.2621519179789	2384.618894802424	40.84882416400612	899.0833325907325	2164.933422435377	973.689246356289	947.562831449054	2279.915977095044	152.9880043570598	906.1592802263757	2246.657184461272	169.5657917285163	945.1342592568654	2291.068174303651	228.593272124104	881.4959129345336	2258.896868332399	246.248501927203	921.0982058867392	2347.901837286907	544.8963092534863	833.8273325534257	2299.179319419358	523.4183982756331	882.9315452901488	2288.210110506416	636.4432264534167	817.9640822536278	2243.177636009625	617.3598735108419	865.5409333828412	2346.671586878215	917.5556812358069	1089.782298877107	1899.023206493542	229.8129495857542	1062.148544594704	1803.179618026509	391.6030547227779	1040.699193986679	1826.688121625052	372.3245773871302	1087.742481140209	1852.863445099208	391.4601069779861	1042.132017509535	2292.625334862391	1001.967195703008	1135.513287043223	1858.751564515301	186.1462675818306	1011.290635881892	1845.884343412554	211.6723077741608	1121.488833849623	2175.174517077618	971.4797434259285	1045.626243041548	1957.056334819333	358.3616703946187	1099.65970378317	1946.621390038573	398.1282237538038	1068.865237225179	2035.681633615757	388.9287441995205	1109.516087465743	2020.617910769227	429.1023182975031	1077.480283191098	2262.142701706141	534.1942977560856	1130.355444575885	2203.039276871897	531.689714515168	1086.129659711163	2243.942774025423	641.3697279532515	1144.735249316593	2186.651653164024	639.7415053813216	1105.949444350208	
1128	7.513333333333334	2328.83330287991	928.7786851008595	861.6933873628567	2178.44333435403	30.30196075093309	975.6247409427885	2205.579197287499	45.88987096447324	929.1099493913213	2190.492036836216	80.82656486002332	975.9207113811393	2278.135504676368	1009.782755521194	834.9766779169528	2367.819148924877	41.30303596832808	899.1817679589747	2163.260984684187	969.6328201458658	947.3003883190993	2266.606547955897	152.976148199037	906.2776353439127	2233.670371898097	170.9644517687203	944.9611990855008	2280.683650910155	228.0302362484933	881.3817353105201	2248.908024491427	247.0888646085091	920.6868678389419	2345.412107481175	541.1130482202083	833.24725657283	2296.680250182756	519.8195422535887	882.4390721881107	2285.936852453042	632.8555416179612	817.3914670544491	2240.914371290974	613.919820553628	865.043671476136	2344.920206949023	913.048954611633	1090.159695016138	1911.148989014546	231.7876734566351	1063.350225240971	1814.777531427479	393.3134405699385	1042.487963682397	1839.118227925771	374.450645179081	1089.351101071532	1864.432502397734	393.2145179557066	1043.118763248864	2289.759849897865	996.50531324015	1135.918633203587	1870.106056646742	187.7043352547946	1013.603186397176	1859.165854302604	214.1039187050453	1123.939187699629	2173.054482470372	966.8291561492925	1045.1844030717	1969.46280844206	359.1667385225289	1100.452993059884	1959.633549838855	399.0980169760433	1069.654895066837	2048.645509764025	388.4102342682688	1110.193480374366	2034.172179223372	428.827489029904	1078.171067198824	2271.684397571325	530.260485970128	1131.430200846009	2212.436088775587	525.5954070791691	1087.621323115077	2249.984639106364	636.8920049396128	1145.554563132628	2192.589270079498	633.1358945430103	1107.12143254623	
1129	7.52	2327.667848604333	924.8258114795451	862.1185698373536	2161.847597964287	30.64216149327224	975.6723067215286	2188.979866526457	46.26015991628754	929.1639255683179	2173.891480528704	81.14098741863459	975.9923243223245	2277.683569137118	1004.998328933269	834.6870351551412	2351.11381347672	41.59851343543173	899.1232762296345	2161.689245515533	966.3190704143482	946.9981841970597	2253.073159105137	153.144354784352	906.076626856293	2220.567699995437	172.4117191566223	944.5550000538891	2269.830001289681	227.574497765883	881.0322391733056	2238.514828648493	247.9067130228963	920.1003718732765	2341.873336101408	537.5434359018742	832.5636932457053	2293.084506104017	516.5200562155212	881.8290974389255	2282.874834592755	629.6698688822945	816.822450705747	2237.82225155334	610.9537599938815	864.534033588991	2343.014760630799	909.0747164845513	1090.680795213571	1924.308430143017	233.1015121709675	1064.432793834512	1826.627407978149	393.882409146516	1044.369651953898	1851.978818147506	375.5562619461708	1090.951854691696	1876.217094066523	394.0805889848977	1044.119708332732	2286.456045305423	991.6603860562797	1136.338681964258	1882.638345108368	188.4452496640519	1015.81201696591	1873.677533395534	215.6181582439299	1126.29908591402	2170.934060610741	962.9092342058331	1044.717579705336	1982.292258165718	359.591124022729	1101.197258929264	1972.871774167118	399.6296530954919	1070.387793030068	2061.864169491083	387.9021979104216	1110.811512881528	2047.795973751743	428.4699425931591	1078.78372288245	2281.356755997896	527.2545526575793	1132.572281231399	2222.032227638668	520.3920413971651	1089.205852395955	2256.122088973017	633.1922430039507	1146.465294423213	2198.674340469633	627.2816349084449	1108.430292752617	
1130	7.526666666666667	2326.496713275448	921.4095458515015	862.6276059171756	2145.346461483301	31.08699931744687	975.6515148926809	2172.461840394036	46.59100894478502	929.110321194441	2157.399524713485	81.54656617665221	975.8558486383725	2277.225081488189	1000.971564459841	834.4034045114996	2334.470029817913	41.71864634817752	898.9521777832562	2160.226623485141	963.7387657455645	946.7000171768211	2239.275636576633	153.4253088060528	905.6166621364331	2207.281587632604	173.8317250440296	943.9677145586974	2258.469077482518	227.186192381579	880.4902885357465	2227.6499489587	248.6567431437226	919.3715660176398	2337.330901945395	534.2311654163657	831.7955127233278	2288.412503687335	513.5555638616287	881.0907960261644	2279.06967474537	626.9211493867215	816.2554490120486	2233.932469813321	608.493839676487	863.9925686951798	2341.039528376964	905.6782072297246	1091.284302876443	1938.362227049146	233.7114506303312	1065.419830480536	1838.660048778894	393.2950937019777	1046.289804178582	1865.141719356494	375.6180872691136	1092.508799206273	1888.147004650893	394.0316212158505	1045.124151830657	2282.890335226287	987.5195845053923	1136.760032148245	1896.248029351179	188.3327621091987	1017.897637748267	1889.210061458655	216.1842268620026	1128.52831149041	2168.873243542765	959.7325289522273	1044.27591364721	1995.444304563711	359.6128548503391	1101.902899763847	1986.222388269137	399.7014195130166	1071.074646034681	2075.235399397496	387.4134726478907	1111.378743321129	2061.376668453081	428.0357655956891	1079.323592885346	2291.098336609658	525.2006252593592	1133.743853439443	2231.800133379644	516.1248504152438	1090.799667963025	2262.314399590534	630.2892428167245	1147.436883138948	2204.886482264979	622.2141289014417	1109.812769921797	
